HIERARCHY
ROOT Hips
{
	OFFSET -0.001795 -0.223333 0.028219
	CHANNELS 6 Xposition Yposition Zposition Zrotation Yrotation Xrotation 
	JOINT LeftUpLeg
	{
		OFFSET 0.069520 -0.091406 -0.006815
		CHANNELS 3 Zrotation Yrotation Xrotation
		JOINT LeftLeg
		{
			OFFSET 0.034277 -0.375199 -0.004496
			CHANNELS 3 Zrotation Yrotation Xrotation
			JOINT LeftFoot
			{
				OFFSET -0.013596 -0.397961 -0.043693
				CHANNELS 3 Zrotation Yrotation Xrotation
				JOINT LeftToe
				{
					OFFSET 0.026358 -0.055791 0.119288
					CHANNELS 3 Zrotation Yrotation Xrotation
					End Site
					{
						OFFSET 0.000000 0.000000 0.000000
					}
				}
			}
		}
	}
	JOINT RightUpLeg
	{
		OFFSET -0.067670 -0.090522 -0.004320
		CHANNELS 3 Zrotation Yrotation Xrotation
		JOINT RightLeg
		{
			OFFSET -0.038290 -0.382569 -0.008850
			CHANNELS 3 Zrotation Yrotation Xrotation
			JOINT RightFoot
			{
				OFFSET 0.015774 -0.398415 -0.042312
				CHANNELS 3 Zrotation Yrotation Xrotation
				JOINT RightToe
				{
					OFFSET -0.025372 -0.048144 0.123348
					CHANNELS 3 Zrotation Yrotation Xrotation
					End Site
					{
						OFFSET 0.000000 0.000000 0.000000
					}
				}
			}
		}
	}
	JOINT Spine
	{
		OFFSET -0.002533 0.108963 -0.026696
		CHANNELS 3 Zrotation Yrotation Xrotation
		JOINT Spine1
		{
			OFFSET 0.005487 0.135180 0.001092
			CHANNELS 3 Zrotation Yrotation Xrotation
			JOINT Spine2
			{
				OFFSET 0.001457 0.052922 0.025425
				CHANNELS 3 Zrotation Yrotation Xrotation
				JOINT Neck
				{
					OFFSET -0.002778 0.213870 -0.042857
					CHANNELS 3 Zrotation Yrotation Xrotation
					JOINT Head
					{
						OFFSET 0.005152 0.064970 0.051349
						CHANNELS 3 Zrotation Yrotation Xrotation
						End Site
						{
							OFFSET 0.000000 0.000000 0.000000
						}
					}
				}
				JOINT LeftShoulder
				{
					OFFSET 0.078845 0.121749 -0.034090
					CHANNELS 3 Zrotation Yrotation Xrotation
					JOINT LeftArm
					{
						OFFSET 0.090977 0.030469 -0.008868
						CHANNELS 3 Zrotation Yrotation Xrotation
						JOINT LeftForeArm
						{
							OFFSET 0.259612 -0.012772 -0.027456
							CHANNELS 3 Zrotation Yrotation Xrotation
							JOINT LeftHand
							{
								OFFSET 0.249234 0.008986 -0.001171
								CHANNELS 3 Zrotation Yrotation Xrotation
								End Site
								{
									OFFSET 0.000000 0.000000 0.000000
								}
							}
						}
					}
				}
				JOINT RightShoulder
				{
					OFFSET -0.081759 0.118833 -0.038615
					CHANNELS 3 Zrotation Yrotation Xrotation
					JOINT RightArm
					{
						OFFSET -0.096012 0.032551 -0.009143
						CHANNELS 3 Zrotation Yrotation Xrotation
						JOINT RightForeArm
						{
							OFFSET -0.253742 -0.013329 -0.021401
							CHANNELS 3 Zrotation Yrotation Xrotation
							JOINT RightHand
							{
								OFFSET -0.255298 0.007772 -0.005559
								CHANNELS 3 Zrotation Yrotation Xrotation
								End Site
								{
									OFFSET 0.000000 0.000000 0.000000
								}
							}
						}
					}
				}
			}
		}
	}
}
MOTION
Frames: 15
Frame Time: 0.050000
0.000000 0.923628 0.000000 -1.024840 19.286404 2.540793 0.088065 0.524791 10.602800 2.213604 -1.070001 11.295917 -1.511739 -4.949477 -2.333936 0.000000 0.000000 0.000000 6.141434 2.983047 -28.558397 0.488512 -0.137788 15.582020 -4.143553 -10.197808 8.108771 0.000000 0.000000 0.000000 2.452005 -0.426527 5.513888 5.070428 -2.207099 -1.954803 -6.874272 -6.786253 6.255368 6.601110 -2.150771 -17.673973 0.000000 0.000000 0.000000 -20.589722 -7.609667 0.833443 -49.108650 -16.670163 1.162620 -5.518092 -25.697783 1.999316 0.000000 0.000000 0.000000 19.956211 -0.443145 -0.831187 55.319406 3.532786 -4.018967 1.340076 21.145853 1.122416 0.000000 0.000000 0.000000 
0.008460 0.929247 0.058418 -0.964485 17.236328 3.770922 1.545684 0.232802 6.222484 0.496734 -1.910232 22.634565 -4.713494 -6.302799 4.334914 0.000000 0.000000 0.000000 7.451890 3.286440 -26.955117 1.310387 -0.389063 18.033955 -4.001833 -10.148234 6.921416 0.000000 0.000000 0.000000 3.361970 -0.285690 2.833412 3.921439 -1.662531 -1.993596 -6.701658 -3.731478 6.018234 6.963412 -1.894524 -19.163607 0.000000 0.000000 0.000000 -20.077233 -6.646826 -0.208090 -50.133947 -15.521982 0.844235 -9.854312 -25.385351 2.812937 0.000000 0.000000 0.000000 19.036975 -4.368187 -2.530341 56.530054 3.244518 -4.131807 1.751567 22.201378 1.366309 0.000000 0.000000 0.000000 
0.015504 0.936906 0.114201 -1.583600 13.982004 3.139367 4.607302 -0.325674 -2.333641 -4.467927 -1.818088 40.228635 -5.152510 -2.991858 11.439763 0.000000 0.000000 0.000000 9.507738 3.510450 -23.465282 0.550482 -0.040520 19.011014 -4.099398 -10.598987 5.260457 0.000000 0.000000 0.000000 4.939357 -0.422277 3.493419 2.207982 -0.606052 -5.168380 -6.380164 -0.478854 8.814006 7.075190 -1.945702 -18.572361 0.000000 0.000000 0.000000 -21.059421 -6.034782 -1.018200 -48.992004 -12.862198 -0.392646 -11.524180 -27.139287 3.343409 0.000000 0.000000 0.000000 17.485865 -2.822339 -1.180927 56.896469 3.117372 -4.437761 3.798162 22.431966 1.811962 0.000000 0.000000 0.000000 
0.021284 0.941877 0.167019 -1.599311 12.424490 2.398995 6.736823 -0.683167 -10.341361 -9.273237 0.180683 50.306206 -1.539691 1.447040 8.599085 0.000000 0.000000 0.000000 10.694791 2.964408 -17.836642 -0.098297 0.242762 16.216850 -3.704659 -9.763076 3.850604 0.000000 0.000000 0.000000 4.441174 -0.361043 3.288518 1.426255 -0.323436 -4.740282 -5.144329 2.085040 8.230022 9.135039 -3.029895 -18.446703 0.000000 0.000000 0.000000 -22.889208 -6.780653 -1.409196 -48.417666 -11.372865 -0.688128 -13.289847 -25.874946 3.487198 0.000000 0.000000 0.000000 18.424968 -3.480416 -1.218302 55.406867 4.596714 -3.779109 5.843968 23.937587 2.436547 0.000000 0.000000 0.000000 
0.026537 0.946964 0.218664 -1.061260 10.363848 1.613736 6.468477 -1.071996 -17.756381 -10.126715 1.206812 52.418617 2.611466 7.632049 5.576226 0.000000 0.000000 0.000000 11.597343 2.031433 -11.585689 -2.050065 0.781956 13.653881 -2.028297 -5.749990 2.460260 0.000000 0.000000 0.000000 3.235819 -0.365682 4.382101 1.270270 -0.273691 -4.858984 -4.804715 4.469714 7.771647 10.968422 -4.393700 -16.810153 0.000000 0.000000 0.000000 -24.307004 -7.311194 -1.774492 -46.381641 -9.125357 -1.241225 -14.622898 -26.031376 3.738978 0.000000 0.000000 0.000000 19.319177 -3.537255 -0.983282 53.760689 6.202073 -3.124622 6.449900 26.208783 2.916739 0.000000 0.000000 0.000000 
0.031095 0.950447 0.269269 -0.722450 6.423786 0.954757 5.926432 -1.359944 -23.427715 -8.365494 1.383864 48.034579 3.625723 8.670786 3.077247 0.000000 0.000000 0.000000 11.498275 0.998387 -6.187082 -2.456249 0.897162 11.885048 -0.257413 -1.063196 0.996330 0.000000 0.000000 0.000000 2.595584 -0.314138 4.333500 0.339634 0.047048 -4.284870 -4.094408 6.631285 7.851955 10.574916 -4.339627 -16.032680 0.000000 0.000000 0.000000 -24.086913 -6.938458 -1.875128 -46.308047 -7.981739 -1.728814 -15.250107 -25.867135 3.865635 0.000000 0.000000 0.000000 19.182305 -3.089880 -0.741762 54.061594 9.360130 -1.779229 5.526795 28.247218 3.011070 0.000000 0.000000 0.000000 
0.035258 0.948739 0.319056 -0.543893 2.522737 0.726019 4.894029 -1.464697 -25.401759 -3.741010 0.022664 34.495350 3.285219 7.729113 2.438069 0.000000 0.000000 0.000000 11.044124 -0.027144 -1.182986 -2.521038 0.880661 10.216703 0.799385 2.236242 -0.310351 0.000000 0.000000 0.000000 2.341517 -0.295286 4.354618 -0.506620 0.358687 -3.976112 -3.152732 8.098994 7.918181 10.148546 -3.618115 -18.456863 0.000000 0.000000 0.000000 -23.958167 -5.935343 -2.120944 -46.416871 -7.562563 -2.015625 -15.576650 -25.565911 3.943749 0.000000 0.000000 0.000000 19.275383 -2.484814 -0.590129 53.419986 13.055799 -0.165043 6.018564 30.111660 3.348675 0.000000 0.000000 0.000000 
0.039337 0.943230 0.369043 -0.784178 -0.191852 0.048935 4.997928 -1.230063 -24.526955 -1.325419 -0.225050 16.349527 0.531188 3.475955 5.848634 0.000000 0.000000 0.000000 10.708114 -0.740874 2.488261 -3.471193 1.190089 11.488216 1.747642 6.650833 -3.068052 0.000000 0.000000 0.000000 2.200278 -0.341504 5.384002 -0.272656 0.212153 -3.406833 -2.969631 8.461196 7.071224 9.159646 -3.031899 -18.886449 0.000000 0.000000 0.000000 -24.126849 -4.586113 -2.571607 -46.199909 -7.663516 -2.007659 -16.093966 -23.734270 3.812084 0.000000 0.000000 0.000000 20.596368 -2.424449 -0.850542 51.744173 15.289141 0.719795 7.376865 31.847075 3.873969 0.000000 0.000000 0.000000 
0.043683 0.936587 0.421034 -1.028792 -4.780728 0.798110 5.924254 -0.745864 -23.757302 -0.921862 0.039987 3.084157 -0.703217 1.154400 6.702445 0.000000 0.000000 0.000000 9.936859 -1.222274 5.132978 -4.694573 1.634091 12.942157 2.183709 10.052637 -5.275368 0.000000 0.000000 0.000000 2.587777 -0.295639 4.287377 -0.933620 0.449791 -1.040685 -2.926785 9.720808 5.586667 11.022891 -4.038091 -19.814030 0.000000 0.000000 0.000000 -25.740801 -5.488724 -1.990359 -44.038988 -6.770850 -2.101695 -13.841649 -24.392876 3.512074 0.000000 0.000000 0.000000 21.652052 -1.977448 -0.946942 51.596031 15.889334 1.113111 8.580143 34.414819 4.506977 0.000000 0.000000 0.000000 
0.048852 0.929242 0.476849 -0.916891 -7.598216 0.339468 5.628182 -0.618989 -22.693450 0.096193 -0.114667 3.586972 -1.665029 -1.245669 5.573159 0.000000 0.000000 0.000000 8.089463 -1.640658 8.783011 -5.572420 2.100892 14.994760 2.862780 13.932330 -6.809434 0.000000 0.000000 0.000000 2.004104 -0.282060 4.684786 -1.714491 0.784533 -2.665958 -0.766354 9.418584 7.027266 10.073058 -4.285137 -17.251272 0.000000 0.000000 0.000000 -28.276627 -7.222751 -0.332259 -42.409162 -6.697158 -2.299080 -12.933885 -20.995880 2.979805 0.000000 0.000000 0.000000 23.540631 -1.851142 -1.567384 49.379769 16.215142 1.024221 11.688080 35.044397 5.349283 0.000000 0.000000 0.000000 
0.054797 0.925250 0.536946 0.230290 -11.692573 0.477205 3.498274 -0.851579 -22.568933 1.080987 -0.385865 9.084601 -2.106545 -1.037049 9.396754 0.000000 0.000000 0.000000 5.125500 -1.229059 8.323915 -6.405853 3.216838 20.701743 3.374954 14.616875 -5.816735 0.000000 0.000000 0.000000 0.871622 -0.100891 1.885114 -1.299860 0.580177 -1.862580 -1.197991 9.949620 8.325463 9.268658 -4.152143 -16.390525 0.000000 0.000000 0.000000 -26.760856 -6.390896 0.005531 -43.598058 -6.002984 -2.957004 -11.981404 -22.810433 3.128898 0.000000 0.000000 0.000000 22.779410 -0.901274 -1.382692 52.188902 14.213584 0.323248 9.986484 34.168253 4.600127 0.000000 0.000000 0.000000 
0.060168 0.928316 0.595339 1.377638 -14.602705 0.852206 1.750836 -1.064956 -21.590437 1.974503 -0.578606 13.128016 -2.655405 -2.343738 9.125593 0.000000 0.000000 0.000000 1.756281 -0.338946 2.624143 -4.174517 5.054903 34.370297 4.408367 10.674608 0.570628 0.000000 0.000000 0.000000 -0.443105 -0.038572 1.233796 -0.754412 0.314639 -1.908281 -1.560776 8.577318 9.274165 8.989093 -4.029879 -18.043226 0.000000 0.000000 0.000000 -27.806431 -6.231846 1.068836 -42.417885 -8.183785 -2.596879 -10.726400 -20.838391 2.742183 0.000000 0.000000 0.000000 23.007873 0.174700 -1.671926 52.849732 10.725208 -1.038344 9.405800 33.243300 4.007914 0.000000 0.000000 0.000000 
0.062406 0.937669 0.647535 1.915087 -17.276211 1.186031 0.784328 -1.069818 -17.921849 1.036612 -0.261488 13.277233 -1.454261 -1.169830 6.638707 0.000000 0.000000 0.000000 -0.243703 0.652168 -6.806428 0.520537 6.575952 50.552992 4.001656 2.723396 9.478827 0.000000 0.000000 0.000000 -0.205402 -0.074715 2.096900 -1.259426 0.541480 -1.691894 -1.938527 5.986381 8.009050 9.108665 -4.382483 -18.633081 0.000000 0.000000 0.000000 -26.660232 -6.224472 2.580916 -44.152534 -11.690270 -1.840378 -8.271024 -19.899486 2.301210 0.000000 0.000000 0.000000 22.739737 0.297660 -2.866166 54.210814 6.662103 -2.414137 9.208248 31.243753 3.288938 0.000000 0.000000 0.000000 
0.059992 0.947384 0.694327 1.704282 -20.339457 1.383261 0.623560 -0.873859 -13.217037 0.289317 -0.038245 10.740663 -0.291053 0.729566 6.679358 0.000000 0.000000 0.000000 -0.696576 1.681813 -15.225129 5.474936 5.811671 57.655893 -0.242012 -5.983512 9.698864 0.000000 0.000000 0.000000 0.327245 -0.139979 3.422268 -0.342139 0.108192 -1.868796 -2.827619 3.879437 7.808020 8.357713 -4.366721 -18.234151 0.000000 0.000000 0.000000 -25.481371 -6.005686 3.727652 -43.179804 -14.185575 -1.347343 -6.881214 -20.688991 2.242632 0.000000 0.000000 0.000000 22.325765 0.860172 -3.606168 53.797304 3.579146 -3.488536 9.038473 28.804681 2.677412 0.000000 0.000000 0.000000 
0.052881 0.956424 0.739427 1.048210 -22.330106 1.084564 0.537333 -0.582227 -7.564414 0.596981 -0.128019 7.427646 0.657612 2.343873 6.701308 0.000000 0.000000 0.000000 -0.774508 2.629470 -21.053424 9.666283 3.406609 56.284617 -3.375884 -10.844511 5.408742 0.000000 0.000000 0.000000 0.770935 -0.200144 4.698906 0.241758 -0.150048 -1.599530 -2.839258 0.849887 7.699106 7.873262 -4.597472 -17.362833 0.000000 0.000000 0.000000 -24.739610 -6.025926 5.125337 -42.239174 -16.895518 -0.867857 -5.128278 -21.391831 2.102953 0.000000 0.000000 0.000000 20.836971 1.264788 -4.298292 54.177240 1.291404 -4.330670 9.975787 26.555951 2.358071 0.000000 0.000000 0.000000 
